<?xml version="1.0" standalone="no"?>
<!DOCTYPE svg PUBLIC "-//W3C//DTD SVG 20010904//EN"
 "http://www.w3.org/TR/2001/REC-SVG-20010904/DTD/svg10.dtd">
<svg version="1.0" xmlns="http://www.w3.org/2000/svg"
 width="260.000000pt" height="260.000000pt" viewBox="0 0 260.000000 260.000000"
 preserveAspectRatio="xMidYMid meet">
<metadata>
Created by potrace 1.14, written by Peter Selinger 2001-2017
</metadata>
<g transform="translate(0.000000,260.000000) scale(0.100000,-0.100000)"
fill="#000000" stroke="none">
<path d="M1507 2084 c-3 -4 -137 -7 -297 -7 l-292 0 -8 -23 c-8 -20 -15 -23
-52 -20 -49 3 -78 -8 -78 -29 0 -8 -9 -15 -20 -15 -13 0 -20 -7 -20 -19 0 -10
-9 -21 -20 -24 -11 -3 -20 -12 -20 -19 0 -8 -11 -20 -24 -26 l-23 -10 -1 -207
c0 -145 -4 -210 -12 -220 -7 -8 -16 -13 -20 -10 -4 3 -10 -4 -13 -14 -3 -14
-13 -18 -40 -16 -28 2 -38 -2 -42 -16 -4 -11 -15 -24 -26 -30 -12 -6 -18 -17
-15 -25 4 -11 -5 -14 -40 -14 -37 0 -47 -4 -51 -20 -3 -10 -13 -22 -23 -25
-10 -3 -20 -15 -23 -25 -3 -11 -12 -20 -21 -20 -9 0 -16 -7 -16 -15 0 -9 -11
-21 -25 -27 -20 -9 -25 -18 -25 -50 0 -32 -3 -38 -21 -38 -20 0 -20 -4 -17
-167 3 -141 5 -168 18 -168 8 0 17 -9 20 -20 3 -11 11 -21 18 -21 7 -1 17 -2
22 -3 6 0 10 -6 10 -12 0 -15 26 -39 34 -32 3 4 6 -3 6 -14 0 -24 17 -33 54
-29 17 2 27 -2 31 -15 3 -9 17 -25 31 -34 13 -9 22 -20 19 -24 -2 -5 6 -11 20
-13 15 -3 25 -1 25 6 0 6 4 5 9 -2 4 -8 12 -13 17 -12 5 0 10 -8 12 -19 2 -13
11 -20 25 -19 44 2 56 -2 62 -22 6 -17 14 -20 60 -17 48 3 55 1 64 -20 6 -13
20 -23 31 -24 11 -1 56 -2 100 -3 59 -1 83 -5 90 -16 5 -8 7 -17 4 -21 -2 -4
121 -7 273 -6 204 2 278 5 278 14 0 23 18 28 98 29 115 2 114 2 120 25 4 14
11 20 21 16 8 -3 18 -2 20 2 3 5 23 6 45 4 24 -3 42 0 46 8 6 8 4 10 -6 4 -9
-5 -7 -1 3 11 11 13 29 19 50 19 25 -1 34 4 38 19 5 16 14 21 43 21 29 0 37 4
42 23 4 18 12 22 45 22 39 0 61 14 38 23 -8 4 -4 8 10 12 12 4 22 12 22 17 0
5 5 6 10 3 6 -4 10 -3 9 2 -4 23 3 33 22 33 16 0 20 5 16 20 -4 15 0 20 14 20
12 0 23 10 29 25 5 14 13 25 17 24 27 -4 29 9 30 162 0 150 -1 162 -18 166
-11 3 -19 14 -19 24 0 28 -22 69 -37 69 -7 0 -13 11 -13 24 0 18 6 25 23 28
22 3 22 5 22 153 0 175 -1 185 -26 185 -12 0 -19 7 -19 20 0 13 -7 20 -20 20
-15 0 -20 7 -20 26 0 18 -5 25 -17 23 -52 -5 -73 1 -73 21 0 19 -7 20 -130 20
l-130 0 0 84 c0 75 -2 84 -20 89 -12 3 -20 14 -20 27 0 11 -6 20 -12 19 -28
-3 -38 2 -38 21 0 13 -7 20 -19 20 -13 0 -21 8 -23 22 -3 21 -8 23 -61 20 -54
-2 -58 0 -67 24 -8 20 -16 25 -38 23 -15 -2 -32 0 -38 4 -6 3 -14 4 -17 1z
m473 -568 c41 1 82 4 90 6 8 1 14 -3 15 -10 0 -8 9 -20 20 -28 15 -11 20 -28
22 -72 2 -70 -8 -92 -34 -76 -10 7 -17 19 -15 28 2 9 -2 17 -8 17 -5 1 -16 2
-22 3 -7 0 -14 11 -16 24 -3 20 -8 22 -43 17 -36 -4 -41 -2 -49 21 -7 19 -16
25 -29 21 -22 -5 -51 9 -51 26 0 20 22 38 34 28 6 -4 45 -7 86 -5z"/>
</g>
</svg>
